<?xml version="1.0" encoding="UTF-8" standalone="no"?>
<!-- Created with Inkscape (http://www.inkscape.org/) -->

<svg
   width="128"
   height="128"
   viewBox="0 0 33.866666 33.866666"
   version="1.1"
   id="svg1"
   inkscape:version="1.4.3 (0d15f75042, 2025-12-25)"
   sodipodi:docname="RMP_Banana.svg"
   inkscape:export-filename="RMP_Banana.png"
   inkscape:export-xdpi="96"
   inkscape:export-ydpi="96"
   xml:space="preserve"
   xmlns:inkscape="http://www.inkscape.org/namespaces/inkscape"
   xmlns:sodipodi="http://sodipodi.sourceforge.net/DTD/sodipodi-0.dtd"
   xmlns:xlink="http://www.w3.org/1999/xlink"
   xmlns="http://www.w3.org/2000/svg"
   xmlns:svg="http://www.w3.org/2000/svg"><sodipodi:namedview
     id="namedview1"
     pagecolor="#ffffff"
     bordercolor="#000000"
     borderopacity="0.25"
     inkscape:showpageshadow="2"
     inkscape:pageopacity="0.0"
     inkscape:pagecheckerboard="0"
     inkscape:deskcolor="#d1d1d1"
     inkscape:document-units="px"
     inkscape:zoom="1.5508832"
     inkscape:cx="10.639099"
     inkscape:cy="84.790398"
     inkscape:window-width="2552"
     inkscape:window-height="1392"
     inkscape:window-x="0"
     inkscape:window-y="0"
     inkscape:window-maximized="1"
     inkscape:current-layer="layer1" /><defs
     id="defs1"><linearGradient
       id="linearGradient1"><stop
         style="stop-color:#009019;stop-opacity:1;"
         offset="0"
         id="stop11" /><stop
         style="stop-color:#e6e400;stop-opacity:1;"
         offset="0.19806987"
         id="stop12" /><stop
         style="stop-color:#f1e600;stop-opacity:1;"
         offset="0.81061757"
         id="stop13" /><stop
         style="stop-color:#9b9600;stop-opacity:1;"
         offset="1"
         id="stop14" /></linearGradient><rect
       x="20.289247"
       y="17.09768"
       width="107.71075"
       height="110.90232"
       id="rect1" /><linearGradient
       inkscape:collect="always"
       xlink:href="#linearGradient1-1"
       id="linearGradient2"
       x1="8.8397312"
       y1="2.1685162"
       x2="20.329332"
       y2="29.858316"
       gradientUnits="userSpaceOnUse"
       gradientTransform="matrix(0.87312532,0,0,0.87312532,2.0714793,2.010327)" /><linearGradient
       id="linearGradient1-1"><stop
         style="stop-color:#009019;stop-opacity:1;"
         offset="0"
         id="stop1" /><stop
         style="stop-color:#e6e400;stop-opacity:1;"
         offset="0.19806987"
         id="stop3" /><stop
         style="stop-color:#f1e600;stop-opacity:1;"
         offset="0.81061757"
         id="stop4" /><stop
         style="stop-color:#9b9600;stop-opacity:1;"
         offset="1"
         id="stop2" /></linearGradient></defs><g
     inkscape:label="Layer 1"
     inkscape:groupmode="layer"
     id="layer1"><path
       id="path4-7"
       style="fill:none;fill-opacity:1;stroke:#000000;stroke-width:1.05833331;stroke-opacity:1;stroke-dasharray:none"
       d="M 9.08749,3.2255231 C 8.85381,3.2350021 8.615582,3.2873821 8.45187,3.4311951 8.046172,3.7875841 8.104088,4.7287907 8.104088,4.7287907 l 2.690791,3.2488972 c 0.392818,1.4181348 0.731862,2.8482851 1.554944,4.1708051 0.518739,0.818371 1.391203,1.604504 1.424203,2.467033 -0.09924,1.079936 -0.146635,2.160176 -0.530717,3.240112 -0.738576,1.138898 -1.651158,2.091716 -2.737301,2.858223 -1.788055,0.979566 -4.238271,3.412447 -5.706628,2.71818 0,0 -1.394618,-1.104577 -2.215885,-1.080037 -0.195836,0.0059 -0.430424,0.11079 -0.512114,0.288871 -0.171535,0.373948 0.060539,0.841207 0.242363,1.210262 0.187592,0.380764 0.837674,0.958598 0.837674,0.958598 2.29486,1.12488 2.272576,0.639538 3.090768,0.437699 0.434597,-0.219593 0.866982,-0.441582 1.288293,-0.675411 0.09201,0.150738 0.333032,0.201864 0.722954,0.153996 2.150766,-0.922567 4.258203,-1.570507 6.548954,-3.379638 0.0461,0.246797 0.09734,0.489155 0.153995,0.72657 0.285379,1.288909 0.249239,2.631131 0.930693,3.854028 0.558588,1.107865 1.415454,1.967829 2.569869,2.579171 1.418953,1.328474 2.328864,0.682847 3.407027,0.688847 0.948902,-0.230796 1.943824,-0.684078 2.804997,-1.131197 0,0 0.977527,0.280689 1.470194,0.225826 0.524857,-0.05845 1.143792,-0.167422 1.474329,-0.579293 0.105282,-0.131187 0.07855,-0.498161 0.07855,-0.498161 0.129357,-0.149931 -0.162133,-0.378476 -0.31626,-0.502811 -0.169621,-0.136836 -0.400398,-0.264819 -0.614433,-0.223759 -0.660425,0.126681 -1.980018,0.856946 -2.113566,0.456303 -1.535921,-1.040418 -1.504753,-2.472538 -2.160074,-3.733106 -0.251972,-0.468174 -0.448242,-0.930319 -0.603581,-1.387512 0.320872,0.369078 0.30515,0.864354 0.985469,1.098641 1.299612,0.506216 2.08443,0.497611 3.116089,0.735872 0.549904,0.372313 1.090075,0.637496 1.631942,0.921391 l 3.407544,0.288871 c 0.828057,-0.459282 0.821865,-0.906545 -0.0186,-1.341003 L 27.729246,23.087876 C 25.899117,22.050398 24.873944,20.32873 23.484027,18.917072 22.361172,17.607532 22.255678,14.975646 21.119314,13.116909 19.4391,10.368601 16.8055,8.1283903 12.312099,6.5162784 L 9.854368,3.3138901 c 0,0 -0.377259,-0.104172 -0.766878,-0.088367 z" /><path
       style="fill:#6d641c;fill-opacity:1;stroke:none;stroke-width:0.924054"
       d="m 7.5302871,24.571916 c 0.092008,0.150738 0.332973,0.202173 0.7228945,0.154305 2.1507664,-0.922567 4.2581674,-1.570482 6.5489184,-3.379613 l -0.292734,-2.848638 -0.502728,-2.122633 -1.747889,4.177456 z"
       id="path4"
       sodipodi:nodetypes="ccccccc" /><path
       style="fill:#6d641c;fill-opacity:1;stroke:none;stroke-width:0.924054"
       d="m 21.883916,21.821518 c 0.320872,0.369078 0.305321,0.864316 0.98564,1.098603 1.299615,0.506217 2.084414,0.497618 3.116077,0.735881 l -4.456688,-7.345834 -0.930979,-0.40963 c 0.42865,1.97366 0.447774,3.976572 1.28595,5.92098 z"
       id="path5"
       sodipodi:nodetypes="cccccc" /><path
       style="fill:#6d641c;fill-opacity:1;stroke:none;stroke-width:0.924054"
       d="m 24.66912,28.063785 c 0,0 0.977203,0.280812 1.46987,0.225949 0.524857,-0.05845 1.14406,-0.167435 1.474597,-0.579306 0.105282,-0.131187 0.07845,-0.498492 0.07845,-0.498492 l -0.664338,-0.452757 -1.37585,0.289654 -1.012112,1.030182 z"
       id="path6"
       sodipodi:nodetypes="cssccccc" /><path
       style="fill:#6d641c;fill-opacity:1;stroke:none;stroke-width:0.924054"
       d="m 8.1042249,4.7287864 c 1.373376,0.1778282 1.9567891,-0.2938679 1.7502407,-1.4150885 0,0 -0.9657989,-0.2658451 -1.4024704,0.1177525 -0.4056982,0.3563887 -0.3477703,1.297336 -0.3477703,1.297336 z"
       id="path7"
       sodipodi:nodetypes="ccsc" /><path
       style="display:inline;fill:url(#linearGradient2);stroke:none;stroke-width:0.924054"
       d="M 8.1042252,4.7287865 C 9.3082912,4.803265 9.8917048,4.3315686 9.8544656,3.313698 l 2.4577854,3.2025684 c 4.493401,1.6121119 7.126849,3.8523346 8.807063,6.6006426 1.136364,1.858737 1.241833,4.490461 2.364688,5.800001 1.389917,1.411658 2.415137,3.133309 4.245266,4.170787 l 3.277047,0.43756 c 0.840469,0.434458 0.846677,0.881328 0.01862,1.34061 l -3.407384,-0.288603 c -0.750335,-0.393116 -1.497385,-0.750108 -2.271588,-1.40578 -1.024814,-1.312101 -2.092104,-2.411818 -3.025683,-4.180095 l -1.219583,-2.578814 c 0.252276,2.241507 0.118622,4.439158 1.387159,6.796149 0.655321,1.260568 0.62395,2.69281 2.159871,3.733228 0.133548,0.400643 1.452899,-0.3295 2.113324,-0.456181 0.214035,-0.04106 0.444823,0.0866 0.614444,0.223436 0.154128,0.124336 0.445899,0.352798 0.316535,0.502729 -0.186078,0.215662 -0.569517,-0.407402 -0.782023,-0.344464 -0.534412,0.158277 -2.910324,1.808024 -5.045907,2.32745 -1.078163,-0.006 -1.988431,0.639547 -3.407384,-0.688927 C 17.302301,27.894653 16.445799,27.035049 15.887211,25.927184 15.205757,24.704287 15.24161,23.361839 14.956231,22.07293 14.695557,20.980581 14.5466,19.788928 14.509362,18.49797 l -0.502729,-2.122633 c 0.12945,2.319234 -0.729272,2.837487 -1.470948,3.770466 -0.600115,1.001565 -1.610277,1.692526 -2.41124,2.560193 -1.0750734,1.08182 -2.465508,1.825754 -3.8821835,2.541573 -0.8181927,0.201839 -0.7959908,0.68732 -3.0908506,-0.43756 0,0 -0.6502898,-0.578145 -0.8378816,-0.958909 -0.181824,-0.369055 -0.413589,-0.836325 -0.2420547,-1.210273 0.08169,-0.178081 0.3162023,-0.282752 0.5120381,-0.288603 0.821267,-0.02454 2.2157311,1.079935 2.2157311,1.079935 1.4683575,0.694267 3.9188475,-1.738893 5.7069022,-2.718459 1.086143,-0.766507 1.998503,-1.719208 2.737079,-2.858106 0.384082,-1.079936 0.431415,-2.159872 0.530658,-3.239809 -0.033,-0.862528 -0.905656,-1.648724 -1.424395,-2.467095 -0.823082,-1.32252 -1.161917,-2.7526511 -1.554735,-4.1707859 z"
       id="path1"
       sodipodi:nodetypes="cccsccccccccccssssccccccccccsssscccccc" /></g></svg>
