<?xml version="1.0" encoding="UTF-8" standalone="no"?>
<!-- Created with Inkscape (http://www.inkscape.org/) -->

<svg
   width="128"
   height="128"
   viewBox="0 0 33.866666 33.866666"
   version="1.1"
   id="svg1"
   inkscape:version="1.4.3 (0d15f75042, 2025-12-25)"
   sodipodi:docname="RMP_3.svg"
   inkscape:export-filename="RMP_3.png"
   inkscape:export-xdpi="96"
   inkscape:export-ydpi="96"
   xmlns:inkscape="http://www.inkscape.org/namespaces/inkscape"
   xmlns:sodipodi="http://sodipodi.sourceforge.net/DTD/sodipodi-0.dtd"
   xmlns:xlink="http://www.w3.org/1999/xlink"
   xmlns="http://www.w3.org/2000/svg"
   xmlns:svg="http://www.w3.org/2000/svg">
  <sodipodi:namedview
     id="namedview1"
     pagecolor="#ffffff"
     bordercolor="#000000"
     borderopacity="0.25"
     inkscape:showpageshadow="2"
     inkscape:pageopacity="0.0"
     inkscape:pagecheckerboard="0"
     inkscape:deskcolor="#d1d1d1"
     inkscape:document-units="px"
     inkscape:zoom="2.8284271"
     inkscape:cx="81.317281"
     inkscape:cy="-6.1871844"
     inkscape:window-width="1643"
     inkscape:window-height="1392"
     inkscape:window-x="0"
     inkscape:window-y="0"
     inkscape:window-maximized="1"
     inkscape:current-layer="layer1" />
  <defs
     id="defs1">
    <linearGradient
       id="linearGradient6"
       inkscape:collect="always">
      <stop
         style="stop-color:#b20041;stop-opacity:1;"
         offset="0"
         id="stop5" />
      <stop
         style="stop-color:#e30052;stop-opacity:1;"
         offset="1"
         id="stop6" />
    </linearGradient>
    <linearGradient
       id="linearGradient2"
       inkscape:collect="always">
      <stop
         style="stop-color:#e60054;stop-opacity:1;"
         offset="0"
         id="stop2" />
      <stop
         style="stop-color:#e60054;stop-opacity:1;"
         offset="1"
         id="stop3" />
    </linearGradient>
    <rect
       x="0"
       y="0"
       width="128"
       height="128"
       id="rect2" />
    <rect
       x="20.289247"
       y="17.09768"
       width="107.71075"
       height="110.90232"
       id="rect1" />
    <linearGradient
       inkscape:collect="always"
       xlink:href="#linearGradient2"
       id="linearGradient3"
       x1="34.500012"
       y1="53.33331"
       x2="93.499989"
       y2="53.33331"
       gradientUnits="userSpaceOnUse" />
    <linearGradient
       inkscape:collect="always"
       xlink:href="#linearGradient6"
       id="linearGradient5"
       gradientUnits="userSpaceOnUse"
       x1="34.500012"
       y1="53.33331"
       x2="93.499989"
       y2="53.33331"
       gradientTransform="matrix(0.26458333,0,0,0.26458333,-3.59625e-6,-1.0582424)" />
  </defs>
  <g
     inkscape:label="Layer 1"
     inkscape:groupmode="layer"
     id="layer1">
    <g
       id="g1"
       transform="matrix(1.4159451,0,0,1.4159451,-7.0434964,-2.2981944)">
      <path
         d="m 93.499988,39.66665 q 0,8.249997 -4.583332,13.583328 4.583332,5.333331 4.583332,13.833327 0,4.249999 -1.25,7.83333 -1.249999,3.499999 -3.249998,5.666665 -2,2.166665 -4.416665,3.749998 -2.416666,1.666666 -4.833332,2.416666 -2.416665,0.833333 -4.499998,1.249999 -1.999999,0.5 -3.249998,0.5 l -1.25,0.08333 H 34.500012 v -15.66666 h 35.916652 q 0.333333,0 0.75,0 0.499999,-0.08333 1.666666,-0.416666 1.249999,-0.333333 2.166665,-0.916667 0.916667,-0.583333 1.666666,-1.749999 0.75,-1.166666 0.75,-2.833332 0,-1.666666 -0.666666,-2.833332 -0.666667,-1.25 -1.75,-1.833333 -1.083332,-0.583333 -1.999999,-0.833333 -0.833333,-0.25 -1.666666,-0.333333 H 70.749997 34.500012 v -0.08333 -15.583327 h 35.916652 q 0.333333,0 0.75,0 0.499999,-0.08333 1.666666,-0.416666 1.249999,-0.333334 2.166665,-0.916667 0.916667,-0.583333 1.666666,-1.749999 0.75,-1.166666 0.75,-2.833332 0,-1.666666 -0.75,-2.916666 -0.666666,-1.249999 -1.749999,-1.749999 -0.999999,-0.583333 -2.083332,-0.833333 -1,-0.333333 -1.666666,-0.333333 h -0.75 -35.916652 v -15.66666 h 36.249985 q 0.5,0 1.333333,0.08333 0.833333,0 3.166665,0.416667 2.333333,0.416666 4.499998,1.166666 2.166666,0.749999 4.749998,2.416665 2.666666,1.583333 4.499999,3.749999 1.916665,2.166666 3.166665,5.749997 1.333333,3.583332 1.333333,7.999997 z"
         id="text1"
         style="font-size:85.3333px;font-family:RimWordFont;-inkscape-font-specification:RimWordFont;text-align:center;text-anchor:middle;white-space:pre;fill:url(#linearGradient3);fill-opacity:1;stroke:none;stroke-width:2"
         transform="scale(0.26458333)"
         aria-label="3" />
      <path
         id="text1-7"
         style="font-size:85.3333px;font-family:RimWordFont;-inkscape-font-specification:RimWordFont;text-align:center;text-anchor:middle;white-space:pre;fill:url(#linearGradient5);fill-opacity:1;stroke:none;stroke-width:0.529167"
         d="m 9.1281248,3.7262136 v 1.058333 H 18.71927 c 0.08819,0 0.20596,0.00752 0.35295,0.022221 0.146991,0 0.426101,0.036576 0.837675,0.110071 0.411574,0.073495 0.808449,0.176734 1.190625,0.309025 0.382176,0.132292 0.8011,0.345256 1.256771,0.639238 0.47037,0.279282 0.867245,0.610011 1.190625,0.992187 0.338078,0.382176 0.617189,0.889295 0.837675,1.521354 0.180948,0.486297 0.292617,1.016259 0.334347,1.589567 0.01251,-0.173044 0.0186,-0.35023 0.0186,-0.531233 0,-0.779049 -0.117765,-1.484609 -0.35295,-2.116667 -0.220486,-0.63206 -0.499596,-1.139178 -0.837675,-1.521354 -0.323379,-0.382176 -0.720255,-0.712905 -1.190625,-0.992188 -0.455671,-0.293981 -0.874595,-0.506946 -1.256771,-0.639237 -0.382175,-0.132292 -0.779051,-0.23553 -1.190625,-0.309025 -0.411574,-0.073496 -0.690684,-0.110071 -0.837675,-0.110071 -0.14699,-0.0147 -0.264755,-0.022221 -0.35295,-0.022221 z m 11.2685622,6.213057 c -0.02969,0.080197 -0.06714,0.1553164 -0.112138,0.2253104 -0.132291,0.205787 -0.279109,0.360127 -0.440799,0.463021 -0.16169,0.102896 -0.352607,0.183569 -0.573092,0.242362 -0.205787,0.05879 -0.353123,0.09589 -0.441317,0.110588 H 18.630904 9.1281248 v 1.058333 h 9.5027792 0.198437 c 0.08819,-0.0147 0.23553,-0.05179 0.441317,-0.110588 0.220486,-0.0588 0.411402,-0.139472 0.573092,-0.242362 0.16169,-0.102894 0.308508,-0.257234 0.440799,-0.463021 0.132292,-0.205787 0.198438,-0.455844 0.198438,-0.749825 0,-0.19399 -0.0287,-0.37183 -0.0863,-0.5338184 z m 3.523299,3.6220024 c -0.118509,0.184228 -0.250044,0.360282 -0.394291,0.528133 0.709214,0.825266 1.107705,1.8651 1.194759,3.120223 0.01218,-0.169705 0.01809,-0.34263 0.01809,-0.518832 0,-1.231792 -0.272862,-2.274756 -0.818555,-3.129524 z m -3.519681,3.623034 c -0.03021,0.0836 -0.06907,0.161476 -0.115756,0.234094 -0.132291,0.205788 -0.279109,0.360128 -0.440799,0.463021 -0.16169,0.102897 -0.352607,0.183569 -0.573092,0.242363 -0.205787,0.05879 -0.353123,0.09589 -0.441317,0.110587 H 18.630904 9.1281248 v 1.058334 h 9.5027792 0.198437 c 0.08819,-0.0147 0.23553,-0.05128 0.441317,-0.110071 0.220486,-0.05879 0.411402,-0.139983 0.573092,-0.24288 0.16169,-0.102893 0.308508,-0.257234 0.440799,-0.46302 0.132292,-0.205788 0.198438,-0.455327 0.198438,-0.749309 0,-0.201781 -0.02728,-0.382887 -0.08268,-0.543119 z" />
      <path
         id="text1-79"
         style="font-size:85.3333px;font-family:RimWordFont;-inkscape-font-specification:RimWordFont;text-align:center;text-anchor:middle;white-space:pre;fill:none;fill-opacity:1;stroke:#000000;stroke-width:0.529167;stroke-opacity:1"
         d="m 9.1282123,3.7263837 v 1.058334 4.144966 h 9.5027787 0.198438 c 0.117593,0 0.264928,0.02957 0.441317,0.08837 0.191088,0.0441 0.374482,0.117765 0.55087,0.220658 0.191088,0.08819 0.345429,0.242535 0.463021,0.463021 0.09426,0.1899965 0.11205,0.2375379 0,0.4630213 -0.108869,0.219082 -0.27911,0.360127 -0.4408,0.463021 -0.16169,0.102896 -0.352606,0.183569 -0.573091,0.242362 -0.205787,0.05879 -0.353123,0.09589 -0.441317,0.110588 H 18.630991 9.1282123 v 1.057816 5.17e-4 4.122746 0.02222 h 9.5911457 0.154513 c 0.14699,0.01469 0.293809,0.04375 0.4408,0.08785 0.16169,0.0441 0.338079,0.117765 0.529166,0.220658 0.191088,0.102893 0.345428,0.264756 0.463021,0.485242 0.09345,0.206533 0.07923,0.267854 -0.02222,0.4408 -0.132291,0.205788 -0.27911,0.360127 -0.4408,0.46302 -0.16169,0.102897 -0.352606,0.183569 -0.573091,0.242363 -0.205787,0.05879 -0.353123,0.09589 -0.441317,0.110587 H 18.630987 9.1282083 v 1.058334 4.144966 h 9.5911457 l 0.330729,-0.02222 c 0.220486,0 0.507119,-0.0441 0.859896,-0.132291 0.367477,-0.0735 0.764352,-0.183739 1.190625,-0.330729 0.426273,-0.132292 0.852718,-0.345257 1.278992,-0.639238 0.426272,-0.279283 0.815626,-0.610012 1.168404,-0.992187 0.352777,-0.382176 0.63941,-0.881773 0.859896,-1.499134 0.220486,-0.63206 0.330729,-1.323089 0.330729,-2.072741 -0.01075,-0.353401 -0.0049,-0.704282 10e-6,-1.058334 0,-1.231792 -0.694026,-2.247369 -0.680253,-3.105043 0.01377,-0.857674 0.680251,-1.865077 0.680251,-3.090445 0,-0.192315 -0.0089,-0.379399 -0.02325,-0.5627563 9.56e-4,0.01222 0.0038,0.0234 0.0047,0.03566 0.01251,-0.173044 0.0186,-0.35023 0.0186,-0.531233 0,-0.779049 -0.117765,-1.484609 -0.35295,-2.116667 -0.220486,-0.63206 -0.499596,-1.139178 -0.837675,-1.521354 -0.323379,-0.382176 -0.720255,-0.712905 -1.190625,-0.992188 -0.455671,-0.293981 -0.874595,-0.506946 -1.256771,-0.639237 -0.382175,-0.132292 -0.779051,-0.23553 -1.190625,-0.309025 -0.411574,-0.0735 -0.690684,-0.110071 -0.837675,-0.110071 -0.14699,-0.0147 -0.264755,-0.02222 -0.35295,-0.02222 z"
         sodipodi:nodetypes="ccccscccsscccccccccccscsscccccccccccscsscsccscccsscsc" />
    </g>
  </g>
</svg>
