<?xml version="1.0" encoding="UTF-8" standalone="no"?>
<!-- Created with Inkscape (http://www.inkscape.org/) -->

<svg
   width="128"
   height="128"
   viewBox="0 0 33.866666 33.866666"
   version="1.1"
   id="svg1"
   inkscape:version="1.4.3 (0d15f75042, 2025-12-25)"
   sodipodi:docname="RMP_6.svg"
   inkscape:export-filename="RMP_6.png"
   inkscape:export-xdpi="96"
   inkscape:export-ydpi="96"
   xmlns:inkscape="http://www.inkscape.org/namespaces/inkscape"
   xmlns:sodipodi="http://sodipodi.sourceforge.net/DTD/sodipodi-0.dtd"
   xmlns:xlink="http://www.w3.org/1999/xlink"
   xmlns="http://www.w3.org/2000/svg"
   xmlns:svg="http://www.w3.org/2000/svg">
  <sodipodi:namedview
     id="namedview1"
     pagecolor="#ffffff"
     bordercolor="#000000"
     borderopacity="0.25"
     inkscape:showpageshadow="2"
     inkscape:pageopacity="0.0"
     inkscape:pagecheckerboard="0"
     inkscape:deskcolor="#d1d1d1"
     inkscape:document-units="px"
     inkscape:zoom="6.2035326"
     inkscape:cx="58.918043"
     inkscape:cy="56.01647"
     inkscape:window-width="1273"
     inkscape:window-height="1392"
     inkscape:window-x="0"
     inkscape:window-y="0"
     inkscape:window-maximized="1"
     inkscape:current-layer="layer1" />
  <defs
     id="defs1">
    <linearGradient
       id="linearGradient6"
       inkscape:collect="always">
      <stop
         style="stop-color:#a0003a;stop-opacity:1;"
         offset="0"
         id="stop5" />
      <stop
         style="stop-color:#fb0065;stop-opacity:1;"
         offset="1"
         id="stop6" />
    </linearGradient>
    <linearGradient
       id="linearGradient2"
       inkscape:collect="always">
      <stop
         style="stop-color:#e60054;stop-opacity:1;"
         offset="0"
         id="stop2" />
      <stop
         style="stop-color:#ff6ca7;stop-opacity:1;"
         offset="1"
         id="stop3" />
    </linearGradient>
    <rect
       x="0"
       y="0"
       width="128"
       height="128"
       id="rect2" />
    <rect
       x="20.289247"
       y="17.09768"
       width="107.71075"
       height="110.90232"
       id="rect1" />
    <linearGradient
       inkscape:collect="always"
       xlink:href="#linearGradient2"
       id="linearGradient3"
       x1="3.9999979"
       y1="53.333311"
       x2="65.259266"
       y2="53.333311"
       gradientUnits="userSpaceOnUse"
       gradientTransform="matrix(0.26458333,0,0,0.26458333,2.8952071,2.7745735)" />
    <linearGradient
       inkscape:collect="always"
       xlink:href="#linearGradient6"
       id="linearGradient4"
       gradientUnits="userSpaceOnUse"
       gradientTransform="matrix(0.26458333,0,0,0.26458333,2.8950337,1.7164114)"
       x1="3.9999979"
       y1="53.333311"
       x2="65.259266"
       y2="53.333311" />
  </defs>
  <g
     inkscape:label="Layer 1"
     inkscape:groupmode="layer"
     id="layer1">
    <g
       id="g8"
       transform="matrix(1.3933586,0,0,1.3933586,0.19816494,-5.5705753)">
      <path
         d="m 13.831314,14.769013 q 0.132291,0 0.352777,0.02205 0.220486,0 0.837847,0.132292 0.63941,0.110243 1.212673,0.30868 0.573264,0.176389 1.25677,0.617361 0.705556,0.418924 1.190625,1.014236 0.507118,0.573264 0.837847,1.521353 0.352777,0.94809 0.352777,2.116666 0,1.146528 -0.330729,2.094617 -0.330729,0.926042 -0.859895,1.499305 -0.529166,0.573264 -1.168576,0.992187 -0.63941,0.440972 -1.300868,0.63941 -0.639409,0.220486 -1.168575,0.330729 -0.529167,0.132291 -0.859896,0.132291 l -0.352777,0.02205 H 10.25944 q -0.132292,0 -0.3527775,-0.02205 -0.1984375,0 -0.8378468,-0.132291 Q 8.4514547,25.947653 7.878191,25.727167 7.3049275,25.528729 6.5993722,25.087757 5.9158656,24.668835 5.4087477,24.095571 4.9016299,23.522308 4.5488522,22.596266 4.2181232,21.648177 4.2181232,20.501649 v -7.209893 -0.02205 -0.02205 q 0,-1.10243 0.2866318,-1.984374 Q 4.8134355,10.359294 5.2764561,9.7860304 5.7394769,9.2127667 6.3568376,8.7717947 6.9962471,8.3308226 7.5474621,8.1323854 8.098677,7.9118994 8.716038,7.7796077 9.3333988,7.6252675 9.6420791,7.6032187 9.9507598,7.5591217 10.193294,7.5591217 h 6.173609 q 0.198437,0 0.529166,0.022048 0.330729,0 0.992187,0.1984375 0.683507,0.1984372 0.992187,0.5512149 0.661458,0.7496524 0.903993,1.7418389 0.242535,0.970139 -0.0441,1.477257 -0.02205,0.06615 -0.110243,0.110243 -0.06615,0.02205 -0.110243,0.02205 H 19.4537 l -9.106073,0.02205 q -0.06614,0 -0.198437,0 -0.132292,0 -0.4630206,0.08819 -0.3086803,0.06615 -0.5512151,0.220486 -0.2425346,0.132292 -0.4409718,0.463021 -0.1984375,0.330729 -0.1984375,0.771701 0,0.463021 0.220486,0.79375 0.2425345,0.330729 0.5953122,0.485069 0.3527777,0.132292 0.5732637,0.198438 0.2204861,0.0441 0.4189231,0.0441 z m -0.0882,7.276038 q 0.0882,0 0.198438,0 0.132291,-0.02205 0.440972,-0.110243 0.330729,-0.08819 0.573263,-0.220486 0.264583,-0.15434 0.463021,-0.46302 0.198437,-0.330729 0.198437,-0.749653 0,-0.46302 -0.198437,-0.79375 -0.198438,-0.330728 -0.463021,-0.46302 -0.264583,-0.15434 -0.551215,-0.220486 -0.264583,-0.08819 -0.46302,-0.08819 h -0.198438 -3.395485 q -0.06614,-0.02205 -0.198437,0 -0.132292,0 -0.4630206,0.08819 -0.3086803,0.06615 -0.5512151,0.220486 -0.2425346,0.132292 -0.4409718,0.46302 -0.1984375,0.33073 -0.1984375,0.79375 0,0.418924 0.1763887,0.749653 0.1984375,0.30868 0.4630206,0.46302 0.2866318,0.132292 0.5512151,0.220486 0.2866319,0.08819 0.4630206,0.110243 h 0.198437 z"
         id="text1"
         style="font-size:85.3333px;font-family:RimWordFont;-inkscape-font-specification:RimWordFont;white-space:pre;fill:url(#linearGradient3);stroke:none;stroke-width:0.529167"
         aria-label="6" />
      <path
         id="text1-9"
         style="font-size:85.3333px;font-family:RimWordFont;-inkscape-font-specification:RimWordFont;white-space:pre;fill:url(#linearGradient4);stroke:none;stroke-width:0.529167"
         d="m 10.193295,6.5009604 c -0.161689,0 -0.3456,0.014525 -0.5513871,0.043925 C 9.436121,6.5595834 9.1274401,6.6187244 8.7158662,6.7216184 8.3042922,6.8098124 7.9149387,6.9270614 7.5474621,7.0740514 7.1799855,7.2063434 6.7831102,7.4198244 6.3568372,7.7138064 5.9452634,8.0077874 5.5849635,8.3455224 5.276283,8.7276974 4.9676026,9.1098734 4.7105409,9.6024684 4.5047539,10.205126 4.313666,10.793089 4.2179497,11.454548 4.2179497,12.189501 v 0.02222 0.0217 1.014409 c 0,-0.734954 0.095716,-1.396413 0.2868042,-1.984375 0.205787,-0.602659 0.4628487,-1.095253 0.7715291,-1.4774286 0.3086805,-0.382176 0.6689804,-0.719911 1.0805542,-1.013892 0.426273,-0.293981 0.8231483,-0.507462 1.1906249,-0.639754 0.3674766,-0.146991 0.7568301,-0.264239 1.1684041,-0.352433 0.4115739,-0.102894 0.7202549,-0.162035 0.9260417,-0.176734 0.2057871,-0.0294 0.3896981,-0.043925 0.5513871,-0.043925 h 6.173267 c 0.132292,0 0.308681,0.00752 0.529167,0.022221 0.220486,0 0.551215,0.066146 0.992187,0.198438 0.455672,0.132291 0.786401,0.315685 0.992188,0.55087 0.440972,0.499768 0.742647,1.080555 0.904337,1.7420126 0.01766,0.07065 0.03306,0.13922 0.04651,0.206189 0.09944,-0.3209696 0.08404,-0.7423146 -0.04651,-1.2645226 -0.16169,-0.661458 -0.463365,-1.242244 -0.904337,-1.742012 -0.205787,-0.235185 -0.536516,-0.418579 -0.992188,-0.550871 -0.440972,-0.132291 -0.771701,-0.198437 -0.992187,-0.198437 -0.220486,-0.0147 -0.396875,-0.022221 -0.529167,-0.022221 z M 8.5809908,12.715567 c -0.057186,0.161515 -0.085783,0.338983 -0.085783,0.532268 0,0.30868 0.073668,0.573264 0.2206583,0.79375 0.1616897,0.220486 0.3601274,0.382348 0.5953125,0.485241 0.2351852,0.0882 0.426101,0.154341 0.5730917,0.198438 0.1469907,0.0294 0.2868047,0.04393 0.4190957,0.04393 h 3.52795 c 0.08819,0 0.205443,0.0075 0.352434,0.02222 0.14699,0 0.426617,0.0441 0.838191,0.132291 0.426274,0.0735 0.830154,0.176217 1.21233,0.308509 0.382176,0.117592 0.8011,0.323552 1.25677,0.617533 0.470371,0.279283 0.867246,0.617017 1.190625,1.013892 0.338079,0.382176 0.617706,0.889294 0.838192,1.521354 0.181147,0.486833 0.292208,1.017597 0.33383,1.591634 0.01242,-0.173933 0.0186,-0.351918 0.0186,-0.533301 0,-0.779051 -0.117248,-1.484607 -0.352433,-2.116667 -0.220486,-0.632059 -0.500113,-1.139178 -0.838192,-1.521354 -0.323379,-0.396874 -0.720254,-0.734609 -1.190625,-1.013891 -0.45567,-0.293982 -0.874594,-0.499941 -1.25677,-0.617534 -0.382176,-0.132291 -0.786056,-0.235013 -1.21233,-0.308508 -0.411574,-0.0882 -0.691201,-0.132292 -0.838191,-0.132292 -0.146991,-0.0147 -0.26424,-0.02222 -0.352434,-0.02222 h -3.52795 c -0.132291,0 -0.272105,-0.01452 -0.4190957,-0.04392 C 9.7372797,13.622833 9.5463639,13.556688 9.3111787,13.468493 9.0759936,13.3656 8.8775559,13.203737 8.7158662,12.983251 8.6605585,12.90029 8.615488,12.811016 8.5809908,12.715567 Z m 6.9515142,7.237801 c -0.02996,0.08349 -0.06783,0.16335 -0.113689,0.239779 -0.132292,0.205787 -0.286632,0.360128 -0.46302,0.463021 -0.16169,0.0882 -0.353123,0.161865 -0.573609,0.220658 -0.205787,0.0588 -0.352606,0.09537 -0.4408,0.110071 H 13.74295 10.347291 10.148854 C 10.031261,20.972195 9.8769208,20.93562 9.6858329,20.876826 9.509444,20.81803 9.32605,20.744363 9.1349621,20.656168 8.9585734,20.553275 8.8042329,20.398934 8.6719413,20.193147 c -0.038446,-0.07209 -0.070759,-0.147456 -0.096635,-0.225826 -0.053271,0.160365 -0.080099,0.338456 -0.080099,0.534334 0,0.279283 0.059141,0.529339 0.1767334,0.749825 0.1322916,0.205787 0.2866321,0.360128 0.4630208,0.463021 0.1910879,0.0882 0.3744819,0.161863 0.5508708,0.220659 0.1910879,0.05879 0.3454277,0.09537 0.4630207,0.11007 h 0.198437 3.395659 0.198437 c 0.08819,-0.0147 0.235013,-0.05128 0.4408,-0.11007 0.220486,-0.05879 0.411919,-0.132461 0.573609,-0.220659 0.176388,-0.102893 0.330728,-0.257234 0.46302,-0.463021 0.132292,-0.220486 0.198438,-0.470542 0.198438,-0.749825 0,-0.201679 -0.02828,-0.384255 -0.08475,-0.548287 z" />
      <path
         id="text1-4"
         style="font-size:85.3333px;font-family:RimWordFont;-inkscape-font-specification:RimWordFont;white-space:pre;fill:none;stroke:#000000;stroke-width:0.529167;stroke-opacity:1"
         d="m 10.146781,6.295114 c -0.1616889,0 -0.3456003,0.014525 -0.5513874,0.043925 C 9.3896067,6.353739 9.0809258,6.412879 8.6693519,6.515772 8.2577779,6.603962 7.8684244,6.721216 7.5009478,6.868206 7.1334712,7.000498 6.7365958,7.213978 6.3103228,7.50796 5.898749,7.801941 5.5384492,8.139676 5.2297687,8.521851 4.9210883,8.904027 4.6640265,9.396623 4.4582395,9.999281 4.2671516,10.587244 4.1714353,11.248703 4.1714353,11.983656 v 0.02222 0.0217 1.014408 0.0217 0.02222 7.209896 c 0,0.764352 0.1102432,1.462386 0.3307292,2.094445 0.2351851,0.617362 0.5218173,1.117475 0.8598958,1.49965 0.3380786,0.382176 0.7349539,0.712907 1.190625,0.992188 0.4703702,0.293981 0.896816,0.506945 1.2789917,0.639237 0.3821758,0.146991 0.7790509,0.257232 1.1906249,0.330729 0.4262729,0.08819 0.7053833,0.132292 0.837675,0.132292 0.1469901,0.0147 0.2647551,0.02222 0.3529501,0.02222 h 3.571875 l 0.35295,-0.02222 c 0.220486,0 0.507118,-0.0441 0.859896,-0.132292 0.352777,-0.0735 0.742131,-0.183738 1.168404,-0.330729 0.440972,-0.132292 0.874422,-0.345256 1.300696,-0.639237 0.426273,-0.279282 0.816143,-0.610012 1.16892,-0.992188 0.352778,-0.382175 0.63941,-0.882288 0.859896,-1.49965 0.220486,-0.632059 0.330729,-1.330093 0.330729,-2.094445 0,-0.178833 -0.0067,-0.353946 -0.01912,-0.525033 5.7e-5,-7.93e-4 -5.6e-5,-0.0018 0,-0.0026 0.01231,-0.173177 0.0186,-0.350161 0.0186,-0.530717 0,-0.779051 -0.117249,-1.484606 -0.352434,-2.116666 -0.220486,-0.632059 -0.500112,-1.139178 -0.838191,-1.521354 -0.323379,-0.396874 -0.720254,-0.73461 -1.190625,-1.013892 -0.45567,-0.293982 -0.874595,-0.49994 -1.256771,-0.617533 -0.382176,-0.132291 -0.786055,-0.235014 -1.212329,-0.308509 -0.411575,-0.0882 -0.691202,-0.132291 -0.838192,-0.132291 -0.146991,-0.0147 -0.264239,-0.02222 -0.352433,-0.02222 h -3.52795 c -0.132291,0 -0.2721053,-0.01453 -0.419096,-0.04392 C 9.6907684,13.416978 9.4998496,13.350842 9.2646644,13.262647 9.0294793,13.159754 8.8310416,12.997892 8.6693519,12.777406 8.6141237,12.694564 8.5689544,12.605533 8.5344764,12.510238 c 0.029822,-0.08434 0.067765,-0.164617 0.1131714,-0.240295 0.1322915,-0.220486 0.2791102,-0.374826 0.4408,-0.463021 0.1616898,-0.10289 0.3456006,-0.176041 0.5513875,-0.220141 0.2204857,-0.05879 0.3748267,-0.08837 0.4630207,-0.08837 h 0.198438 l 9.105904,-0.02222 h 0.06614 c 0.0294,0 0.06597,-0.007 0.110071,-0.0217 0.0588,-0.0294 0.09589,-0.06649 0.110588,-0.110588 0.244263,-0.432154 0.161546,-2.0647276 0.04392,-2.535245 C 19.576237,8.147198 19.274561,7.566411 18.833589,7.066643 18.627802,6.831458 18.297074,6.648064 17.841402,6.515772 17.40043,6.383481 17.0697,6.317335 16.849214,6.317335 16.628728,6.302635 16.45234,6.295114 16.320048,6.295114 Z m 0.07183,12.424048 c 0.03307,0 0.06064,0.004 0.08268,0.01137 h 3.395141 0.198438 c 0.132291,0 0.286632,0.02906 0.46302,0.08785 0.191089,0.0441 0.374999,0.117765 0.551388,0.220659 0.176389,0.08819 0.330729,0.242535 0.463021,0.463021 0.04628,0.07713 0.08205,0.161157 0.112138,0.24908 -0.02975,0.08214 -0.06696,0.160868 -0.112138,0.236161 -0.132292,0.205787 -0.286633,0.360128 -0.463021,0.463021 -0.16169,0.0882 -0.353122,0.161865 -0.573608,0.220658 -0.205787,0.0588 -0.352606,0.09537 -0.4408,0.110071 H 13.696435 10.300777 10.102339 C 9.9847464,20.766349 9.8304064,20.729774 9.6393185,20.67098 9.4629296,20.612184 9.2795357,20.538517 9.0884478,20.450322 8.9120591,20.347429 8.7577186,20.193088 8.625427,19.987301 8.587014,19.915271 8.554657,19.839772 8.528792,19.761475 c 0.030689,-0.09244 0.07047,-0.178773 0.1188558,-0.259415 0.1322915,-0.220486 0.2791102,-0.374827 0.4408,-0.463021 0.1616898,-0.102891 0.3456006,-0.176559 0.5513875,-0.220659 0.2204857,-0.05879 0.3748267,-0.08785 0.4630207,-0.08785 0.0441,-0.0074 0.08268,-0.01137 0.115755,-0.01137 z m 5.274614,1.056266 c 0.01315,0.04092 0.02438,0.0834 0.03411,0.126607 -0.0097,-0.0432 -0.02094,-0.08567 -0.03411,-0.126607 z m 0.04806,0.187585 c 0.01195,0.06525 0.02082,0.132356 0.02532,0.202572 -0.0045,-0.0702 -0.01336,-0.137349 -0.02532,-0.202572 z"
         sodipodi:nodetypes="sccccscscccccscsccccscccccscsccsccccccssccccsccsccsccccccsssccsccsccccccccccccscccsscccccc" />
    </g>
  </g>
</svg>
