<?xml version="1.0" encoding="UTF-8" standalone="no"?>
<!-- Created with Inkscape (http://www.inkscape.org/) -->

<svg
   width="128"
   height="128"
   viewBox="0 0 33.866666 33.866666"
   version="1.1"
   id="svg1"
   inkscape:version="1.4.3 (0d15f75042, 2025-12-25)"
   sodipodi:docname="RMP_5.svg"
   inkscape:export-filename="RMP_5.png"
   inkscape:export-xdpi="96"
   inkscape:export-ydpi="96"
   xmlns:inkscape="http://www.inkscape.org/namespaces/inkscape"
   xmlns:sodipodi="http://sodipodi.sourceforge.net/DTD/sodipodi-0.dtd"
   xmlns:xlink="http://www.w3.org/1999/xlink"
   xmlns="http://www.w3.org/2000/svg"
   xmlns:svg="http://www.w3.org/2000/svg">
  <sodipodi:namedview
     id="namedview1"
     pagecolor="#ffffff"
     bordercolor="#000000"
     borderopacity="0.25"
     inkscape:showpageshadow="2"
     inkscape:pageopacity="0.0"
     inkscape:pagecheckerboard="0"
     inkscape:deskcolor="#d1d1d1"
     inkscape:document-units="px"
     inkscape:zoom="1.09664"
     inkscape:cx="-15.501897"
     inkscape:cy="205.6281"
     inkscape:window-width="1273"
     inkscape:window-height="1392"
     inkscape:window-x="0"
     inkscape:window-y="0"
     inkscape:window-maximized="1"
     inkscape:current-layer="layer1" />
  <defs
     id="defs1">
    <linearGradient
       id="linearGradient6"
       inkscape:collect="always">
      <stop
         style="stop-color:#b00040;stop-opacity:1;"
         offset="0"
         id="stop5" />
      <stop
         style="stop-color:#ff217a;stop-opacity:1;"
         offset="1"
         id="stop6" />
    </linearGradient>
    <linearGradient
       id="linearGradient2"
       inkscape:collect="always">
      <stop
         style="stop-color:#e60054;stop-opacity:1;"
         offset="0"
         id="stop2" />
      <stop
         style="stop-color:#ff6ca7;stop-opacity:1;"
         offset="1"
         id="stop3" />
    </linearGradient>
    <rect
       x="0"
       y="0"
       width="128"
       height="128"
       id="rect2" />
    <rect
       x="20.289247"
       y="17.09768"
       width="107.71075"
       height="110.90232"
       id="rect1" />
    <linearGradient
       inkscape:collect="always"
       xlink:href="#linearGradient2"
       id="linearGradient3"
       x1="3.9999979"
       y1="53.333308"
       x2="65.259266"
       y2="53.333308"
       gradientUnits="userSpaceOnUse"
       gradientTransform="matrix(0.36403483,0,0,0.36403483,4.328517,-1.6713838)" />
    <linearGradient
       inkscape:collect="always"
       xlink:href="#linearGradient6"
       id="linearGradient4"
       gradientUnits="userSpaceOnUse"
       x1="3.9999979"
       y1="53.333308"
       x2="65.259266"
       y2="53.333308"
       gradientTransform="matrix(0.36403483,0,0,0.36403483,4.328632,-3.1275237)" />
  </defs>
  <g
     inkscape:label="Layer 1"
     inkscape:groupmode="layer"
     id="layer1">
    <path
       d="m 19.375284,14.831521 q 0.182018,0 0.48538,0.03034 0.303362,0 1.152775,0.182018 0.879752,0.151681 1.668494,0.424707 0.788741,0.24269 1.729164,0.849414 0.970759,0.576388 1.638156,1.395467 0.697733,0.788741 1.152776,2.093198 0.48538,1.304458 0.48538,2.912278 0,1.577484 -0.455043,2.881941 -0.455043,1.274121 -1.183113,2.062864 -0.728069,0.788741 -1.638156,1.36513 -0.879751,0.606724 -1.759501,0.879749 -0.87975,0.303364 -1.60782,0.455044 -0.72807,0.182018 -1.183112,0.182018 l -0.48538,0.03034 H 6.1486904 V 24.842481 H 19.25394 q 0.121338,0 0.273025,0 0.182016,-0.03034 0.606724,-0.151681 0.455044,-0.121339 0.788743,-0.303362 0.364034,-0.212354 0.63706,-0.637062 0.273026,-0.455043 0.273026,-1.031431 0,-0.637061 -0.273026,-1.092104 -0.273026,-0.455043 -0.63706,-0.63706 -0.364036,-0.212355 -0.758406,-0.303362 -0.364036,-0.121353 -0.637061,-0.121353 H 19.25394 6.1486904 V 18.805567 10.58445 8.6732679 4.9115767 H 22.863949 q 0.273026,0 0.72807,0.030335 0.455044,0 1.36513,0.2730261 0.940422,0.2730259 1.36513,0.7584056 0.910087,1.0314315 1.243785,2.3965617 0.333699,1.3347933 -0.06068,2.0325269 -0.03034,0.09102 -0.151681,0.151681 -0.09101,0.03034 -0.151681,0.03034 h -0.09101 -15.319793 v 4.247071 z"
       id="text2"
       style="font-size:85.3333px;font-family:RimWordFont;-inkscape-font-specification:RimWordFont;white-space:pre;fill:url(#linearGradient3);stroke:none;stroke-width:0.72807"
       aria-label="5" />
    <path
       id="text2-2"
       style="font-size:85.3333px;font-family:RimWordFont;-inkscape-font-specification:RimWordFont;white-space:pre;fill:url(#linearGradient4);stroke:none;stroke-width:0.72807"
       d="M 6.1488054,3.4554373 V 4.9115762 H 22.863835 c 0.182018,0 0.424708,0.010347 0.728069,0.030573 0.303362,0 0.758407,0.091008 1.36513,0.2730254 0.626948,0.1820179 1.081992,0.434346 1.365131,0.7579322 0.606725,0.6876207 1.021793,1.4867137 1.24426,2.3968004 0.0243,0.097209 0.04549,0.1915494 0.06399,0.2836907 0.136803,-0.4416156 0.115629,-1.0213356 -0.06399,-1.739831 C 27.343958,6.0036807 26.92889,5.204589 26.322165,4.5169684 26.039026,4.1933821 25.583982,3.9410526 24.957034,3.7590361 24.350309,3.5770183 23.895266,3.4860107 23.591904,3.4860107 23.288543,3.4657853 23.045853,3.4554373 22.863835,3.4554373 Z m 5.6425386,9.9199477 v 1.45614 h 7.584298 c 0.121352,0 0.282664,0.01032 0.484905,0.03057 0.202241,0 0.586974,0.06068 1.15325,0.182017 0.5865,0.101113 1.142191,0.242453 1.66802,0.424471 0.525827,0.161792 1.102216,0.445169 1.729166,0.849651 0.647172,0.384259 1.193223,0.848941 1.638155,1.394992 0.465156,0.525828 0.849889,1.223563 1.153252,2.093202 0.249238,0.669823 0.402044,1.400091 0.45931,2.189897 0.01709,-0.239311 0.02559,-0.484197 0.02559,-0.733759 0,-1.07188 -0.161319,-2.04264 -0.484905,-2.912279 -0.303361,-0.869638 -0.688096,-1.567372 -1.153252,-2.0932 -0.444932,-0.546051 -0.990984,-1.010733 -1.638157,-1.394992 -0.626944,-0.404482 -1.203333,-0.687857 -1.729161,-0.849651 -0.525828,-0.182018 -1.081519,-0.32335 -1.668019,-0.42447 -0.566276,-0.121339 -0.951009,-0.182018 -1.15325,-0.182018 -0.202242,-0.02022 -0.363561,-0.03057 -0.484907,-0.03057 z m 9.924928,8.588947 c -0.04122,0.114886 -0.09333,0.224748 -0.156423,0.329907 -0.182018,0.283138 -0.39437,0.495491 -0.63706,0.637061 -0.222466,0.121353 -0.485853,0.222707 -0.789215,0.303599 -0.28314,0.08089 -0.485142,0.131218 -0.606488,0.151444 H 19.254061 6.1488054 v 1.456139 h 13.1052556 0.273024 c 0.121352,-0.02022 0.323349,-0.07055 0.606487,-0.151444 0.303363,-0.08089 0.566751,-0.182251 0.789217,-0.303599 0.242689,-0.14157 0.455042,-0.353923 0.63706,-0.637061 0.182018,-0.303362 0.273027,-0.647411 0.273027,-1.031669 0,-0.277486 -0.03891,-0.52869 -0.116606,-0.754377 z" />
    <path
       id="text2-4"
       style="font-size:85.3333px;font-family:RimWordFont;-inkscape-font-specification:RimWordFont;white-space:pre;fill:none;fill-opacity:1;stroke:#000000;stroke-width:0.72807;stroke-opacity:1"
       d="m 6.1488028,3.455429 v 1.4561389 3.7619297 1.9111824 8.220646 1.759739 h 13.1052532 0.273027 c 0.182017,0 0.394371,0.04068 0.63706,0.121586 0.262914,0.06068 0.515954,0.16132 0.758644,0.302888 0.24269,0.121353 0.455043,0.333699 0.637061,0.637061 0.06318,0.10531 0.115175,0.218512 0.156421,0.338439 -0.04119,0.114762 -0.0934,0.224146 -0.156421,0.329196 -0.182018,0.283138 -0.394373,0.495491 -0.637061,0.637061 -0.222466,0.121353 -0.485854,0.222707 -0.789216,0.303599 -0.283138,0.08089 -0.485142,0.131217 -0.606488,0.151444 H 19.254056 6.1488028 v 1.456139 5.733551 H 19.375639 l 0.484905,-0.03057 c 0.303362,0 0.697734,-0.06068 1.183114,-0.182018 0.48538,-0.101113 1.021794,-0.252801 1.608294,-0.455043 0.586501,-0.182017 1.172528,-0.475031 1.759028,-0.879515 0.606725,-0.38426 1.152777,-0.839304 1.638157,-1.365131 0.48538,-0.525828 0.879751,-1.213214 1.183113,-2.062627 0.303363,-0.869638 0.455044,-1.830761 0.455044,-2.882417 0,-2.828717 -0.156763,-4.787 -1.638157,-6.461618 -0.444932,-0.546051 -0.990984,-1.010734 -1.638157,-1.394992 -0.626944,-0.404483 -1.203337,-0.687859 -1.729166,-0.849653 -0.525828,-0.182018 -1.081518,-0.323349 -1.668018,-0.42447 -0.566277,-0.121338 -0.951011,-0.182017 -1.153252,-0.182017 -0.202242,-0.02023 -0.363559,-0.03057 -0.484905,-0.03057 h -7.584296 v -2.790697 h 15.320036 0.09102 c 0.04045,0 0.09078,-0.01032 0.151444,-0.03057 0.08089,-0.04045 0.131218,-0.09077 0.151443,-0.151445 0.269623,-1.0623922 0.270546,-2.3880462 0.06114,-3.4889041 C 27.343959,6.0036793 26.928891,5.2045876 26.322167,4.516967 26.039026,4.1933807 25.583984,3.9410513 24.957035,3.7590348 24.350311,3.5770169 23.895266,3.4860093 23.591904,3.4860093 23.288542,3.4657839 23.045853,3.4554373 22.863835,3.4554373 Z"
       sodipodi:nodetypes="cccccccsccsccccccccccccccscscccccscccsccccccsc" />
  </g>
</svg>
