<?xml version="1.0" encoding="UTF-8" standalone="no"?>
<!-- Created with Inkscape (http://www.inkscape.org/) -->

<svg
   width="128"
   height="128"
   viewBox="0 0 33.866666 33.866666"
   version="1.1"
   id="svg1"
   inkscape:version="1.4.3 (0d15f75042, 2025-12-25)"
   sodipodi:docname="RMP_2.svg"
   inkscape:export-filename="RMP_2.png"
   inkscape:export-xdpi="96"
   inkscape:export-ydpi="96"
   xmlns:inkscape="http://www.inkscape.org/namespaces/inkscape"
   xmlns:sodipodi="http://sodipodi.sourceforge.net/DTD/sodipodi-0.dtd"
   xmlns:xlink="http://www.w3.org/1999/xlink"
   xmlns="http://www.w3.org/2000/svg"
   xmlns:svg="http://www.w3.org/2000/svg">
  <sodipodi:namedview
     id="namedview1"
     pagecolor="#ffffff"
     bordercolor="#000000"
     borderopacity="0.25"
     inkscape:showpageshadow="2"
     inkscape:pageopacity="0.0"
     inkscape:pagecheckerboard="0"
     inkscape:deskcolor="#d1d1d1"
     inkscape:document-units="px"
     inkscape:zoom="3.1017663"
     inkscape:cx="-13.540672"
     inkscape:cy="35.624863"
     inkscape:window-width="2552"
     inkscape:window-height="1392"
     inkscape:window-x="0"
     inkscape:window-y="0"
     inkscape:window-maximized="1"
     inkscape:current-layer="layer1" />
  <defs
     id="defs1">
    <linearGradient
       id="linearGradient7"
       inkscape:collect="always">
      <stop
         style="stop-color:#880032;stop-opacity:1;"
         offset="0"
         id="stop6" />
      <stop
         style="stop-color:#dd0059;stop-opacity:1;"
         offset="1"
         id="stop7" />
    </linearGradient>
    <linearGradient
       id="linearGradient2"
       inkscape:collect="always">
      <stop
         style="stop-color:#e60054;stop-opacity:1;"
         offset="0"
         id="stop2" />
      <stop
         style="stop-color:#ff6ca7;stop-opacity:1;"
         offset="1"
         id="stop3" />
    </linearGradient>
    <rect
       x="8.7047176"
       y="8.0599237"
       width="111.87174"
       height="111.87174"
       id="rect2" />
    <rect
       x="20.289247"
       y="17.09768"
       width="107.71075"
       height="110.90232"
       id="rect1" />
    <linearGradient
       inkscape:collect="always"
       xlink:href="#linearGradient2"
       id="linearGradient3"
       x1="13.705076"
       y1="61.393858"
       x2="72.955052"
       y2="61.393858"
       gradientUnits="userSpaceOnUse"
       gradientTransform="matrix(0.26458333,0,0,0.26458333,4.9474498,0.68240686)" />
    <linearGradient
       inkscape:collect="always"
       xlink:href="#linearGradient7"
       id="linearGradient4"
       gradientUnits="userSpaceOnUse"
       gradientTransform="matrix(0.26458333,0,0,0.26458333,4.9474057,-0.3759412)"
       x1="13.705076"
       y1="61.393858"
       x2="72.955052"
       y2="61.393858" />
    <linearGradient
       inkscape:collect="always"
       xlink:href="#linearGradient7"
       id="linearGradient1"
       gradientUnits="userSpaceOnUse"
       gradientTransform="matrix(0.26458333,0,0,0.26458333,4.9474057,-0.3759412)"
       x1="13.705076"
       y1="61.393858"
       x2="72.955052"
       y2="61.393858" />
    <linearGradient
       inkscape:collect="always"
       xlink:href="#linearGradient7"
       id="linearGradient5"
       gradientUnits="userSpaceOnUse"
       gradientTransform="matrix(0.26458333,0,0,0.26458333,4.9474057,-0.3759412)"
       x1="13.705076"
       y1="61.393858"
       x2="72.955052"
       y2="61.393858" />
  </defs>
  <g
     inkscape:label="Layer 1"
     inkscape:groupmode="layer"
     id="layer1">
    <g
       id="g1"
       transform="matrix(1.4010353,0,0,1.4010353,-6.0600191,-6.0392363)">
      <path
         d="M 12.718721,22.129668 H 24.25014 v 4.123089 H 8.5735844 v -8.04774 q 0,-0.02205 0,-0.06615 0,-1.322916 0.992187,-2.447395 0.3086806,-0.352777 0.9260416,-0.551214 0.639409,-0.198438 1.124478,-0.220486 l 0.463021,-0.02205 h 6.041317 q 0.06615,0 0.176389,0 0.132291,-0.02205 0.46302,-0.0882 0.330729,-0.08819 0.573264,-0.220486 0.242535,-0.15434 0.440972,-0.485069 0.198437,-0.330729 0.198437,-0.771701 0,-0.440972 -0.198437,-0.749652 -0.176389,-0.330729 -0.463021,-0.463021 -0.264583,-0.15434 -0.551215,-0.242534 -0.264583,-0.08819 -0.46302,-0.110244 H 18.120629 8.5735844 V 7.5996398 h 9.6352386 q 0.132292,0 0.330729,0.022048 0.220486,0 0.837847,0.1322916 0.63941,0.1102429 1.212673,0.3307289 0.573264,0.1984375 1.256771,0.6394096 0.705555,0.4189235 1.212673,0.9921869 0.507118,0.5732632 0.837847,1.5213532 0.352777,0.926041 0.352777,2.072569 0,1.168576 -0.330729,2.116666 -0.330729,0.948089 -0.881944,1.543402 -0.529166,0.573263 -1.168576,1.014235 -0.639409,0.418924 -1.300867,0.617361 -0.63941,0.198437 -1.168576,0.308681 -0.529167,0.110243 -0.859896,0.110243 l -0.330729,0.02205 h -5.490102 z"
         id="text1"
         style="font-size:85.3333px;font-family:RimWordFont;-inkscape-font-specification:RimWordFont;white-space:pre;fill:url(#linearGradient3);stroke-width:0.529167"
         aria-label="2" />
      <path
         style="font-size:85.3333px;font-family:RimWordFont;-inkscape-font-specification:RimWordFont;white-space:pre;fill:url(#linearGradient1);stroke-width:0.529167"
         d="m 12.718635,21.071169 v 1.058333 h 11.531596 v -1.058333 z"
         id="path6" />
      <path
         style="font-size:85.3333px;font-family:RimWordFont;-inkscape-font-specification:RimWordFont;white-space:pre;fill:url(#linearGradient5);stroke-width:0.529167"
         d="m 19.886156,12.808107 c -0.02969,0.0835 -0.06714,0.162719 -0.112137,0.237712 -0.132292,0.220486 -0.27911,0.381832 -0.4408,0.484725 -0.16169,0.0882 -0.352606,0.161865 -0.573092,0.220658 -0.220486,0.0441 -0.374827,0.07367 -0.463021,0.08837 h -0.176733 -6.040975 l -0.463021,0.0217 c -0.323379,0.0147 -0.698206,0.08837 -1.124479,0.220659 -0.411574,0.132291 -0.7202543,0.316202 -0.9260423,0.551387 -0.661458,0.749653 -0.992187,1.565452 -0.992187,2.447396 v 0.06615 0.992187 c 0,-0.881944 0.330729,-1.697743 0.992187,-2.447396 0.205787,-0.235184 0.5144683,-0.419096 0.9260423,-0.551387 0.426273,-0.132292 0.8011,-0.20596 1.124479,-0.220659 l 0.463021,-0.0217 h 6.040975 0.176733 c 0.08819,-0.0147 0.242535,-0.04427 0.463021,-0.08837 0.220486,-0.05879 0.411402,-0.132461 0.573092,-0.220659 0.16169,-0.102893 0.308508,-0.264239 0.4408,-0.484725 0.132291,-0.220486 0.198437,-0.478064 0.198437,-0.772045 0,-0.193991 -0.0287,-0.368412 -0.0863,-0.524 z"
         id="path5" />
      <path
         style="font-size:85.3333px;font-family:RimWordFont;-inkscape-font-specification:RimWordFont;white-space:pre;fill:url(#linearGradient4);stroke-width:0.529167"
         d="m 8.5736687,6.5413065 v 1.0583333 h 9.6350703 c 0.08819,0 0.198438,0.00752 0.33073,0.022221 0.14699,0 0.426101,0.044097 0.837675,0.1322916 0.426273,0.073495 0.83067,0.1837385 1.212845,0.3307292 0.382176,0.1322916 0.8011,0.345256 1.256771,0.6392374 0.47037,0.2792824 0.874767,0.6100119 1.212846,0.9921875 0.338079,0.3821755 0.617189,0.8892945 0.837675,1.5213545 0.181099,0.475386 0.292699,0.994466 0.334347,1.557011 0.01244,-0.176742 0.0186,-0.35757 0.0186,-0.542603 0,-0.764352 -0.117765,-1.455381 -0.35295,-2.072742 C 23.676795,9.5472672 23.397685,9.0401486 23.059606,8.6579731 22.721527,8.2757975 22.31713,7.945068 21.84676,7.6657856 21.391089,7.3718042 20.972165,7.1588398 20.589989,7.0265482 20.207814,6.8795575 19.803417,6.7693143 19.377144,6.695819 18.96557,6.6076246 18.686459,6.5635273 18.539469,6.5635273 18.407177,6.5488287 18.296934,6.5413065 18.208739,6.5413065 Z"
         id="text1-3" />
      <path
         id="text1-0"
         style="font-size:85.3333px;font-family:RimWordFont;-inkscape-font-specification:RimWordFont;white-space:pre;fill:none;stroke:#000000;stroke-width:0.529167;stroke-opacity:1"
         d="m 8.573407,6.5411222 v 1.0583333 4.1671875 h 9.547221 c 0.220878,-0.01687 0.430075,0.04776 0.639238,0.110071 0.191088,0.0588 0.39302,0.11396 0.551387,0.242879 0.433842,0.35317 0.56905,0.966905 0.0217,1.410766 -0.16169,0.0882 -0.352605,0.161866 -0.573091,0.220659 -0.220486,0.0441 -0.374827,0.07367 -0.463021,0.08837 h -0.176734 -6.040975 l -0.46302,0.0217 c -0.323379,0.0147 -0.698206,0.08837 -1.124479,0.220658 -0.411574,0.132291 -0.720254,0.316203 -0.926042,0.551388 -0.9786896,0.98674 -0.992188,2.216674 -0.992188,3.480928 v 0.02481 0.06614 8.047571 H 24.24997 V 22.129317 21.070984 H 12.718374 v -2.0283 h 5.490104 l 0.330729,-0.02222 c 0.220486,0 0.507118,-0.03657 0.859896,-0.110071 0.352777,-0.0735 0.742648,-0.176217 1.168921,-0.308508 0.440972,-0.132291 0.874423,-0.338251 1.300696,-0.617533 0.426273,-0.293981 0.815626,-0.632233 1.168404,-1.014408 0.367476,-0.396876 0.66163,-0.910999 0.882116,-1.543058 0.220486,-0.63206 0.33073,-1.337616 0.33073,-2.116667 0,-0.206793 -0.01431,-0.404963 -0.03152,-0.600997 0.0026,0.02947 0.01072,0.05555 0.01292,0.08527 0.01244,-0.176742 0.0186,-0.357569 0.0186,-0.542602 0,-0.764352 -0.117765,-1.455381 -0.35295,-2.072742 C 23.676537,9.5470832 23.397424,9.0399643 23.059345,8.6577888 22.721266,8.2756132 22.316869,7.9448837 21.846499,7.6656013 21.390828,7.3716199 20.971904,7.1586555 20.589728,7.0263639 20.207553,6.8793732 19.803155,6.76913 19.376882,6.6956347 18.965308,6.6074407 18.686197,6.5633431 18.539207,6.5633431 18.406915,6.5486441 18.296673,6.5411222 18.208478,6.5411222 Z M 8.590461,17.8009 c -0.00467,0.04732 -0.00507,0.09543 -0.00775,0.143143 0.00269,-0.0477 0.00308,-0.09584 0.00775,-0.143143 z"
         sodipodi:nodetypes="cccccscccccccccccccccccccscccssccscsccccscccc" />
    </g>
  </g>
</svg>
